<?xml version="1.0" encoding="UTF-8" standalone="no"?>
<svg
   version="1.1"
   viewBox="-5 -10 100 100"
   id="svg8"
   sodipodi:docname="favicon.svg"
   width="100"
   height="100"
   inkscape:version="1.2.2 (b0a8486541, 2022-12-01)"
   xmlns:inkscape="http://www.inkscape.org/namespaces/inkscape"
   xmlns:sodipodi="http://sodipodi.sourceforge.net/DTD/sodipodi-0.dtd"
   xmlns="http://www.w3.org/2000/svg"
   xmlns:svg="http://www.w3.org/2000/svg">
  <defs
     id="defs12" />
  <sodipodi:namedview
     id="namedview10"
     pagecolor="#ffffff"
     bordercolor="#999999"
     borderopacity="1"
     inkscape:showpageshadow="0"
     inkscape:pageopacity="0"
     inkscape:pagecheckerboard="0"
     inkscape:deskcolor="#d1d1d1"
     showgrid="false"
     inkscape:zoom="1.7481481"
     inkscape:cx="12.012712"
     inkscape:cy="67.500002"
     inkscape:window-width="1920"
     inkscape:window-height="1007"
     inkscape:window-x="0"
     inkscape:window-y="0"
     inkscape:window-maximized="1"
     inkscape:current-layer="svg8" />
  <path
     d="m 17.319009,37.23808 c 0.28906,-0.52734 0.84375,-0.85938 1.4453,-0.85938 0.60156,0 1.1562,0.33203 1.4453,0.85938 l 10.793,19.793 -6.0703,12.137 H 3.4123085 c -0.73438,0 -1.4141,-0.39062 -1.7891,-1.0195 -0.375,-0.63281 -0.39062,-1.418 -0.039063,-2.0625 z m 13.695,31.93 h -1.4219 l 28.711,-57.426 c 0.27734,-0.55859 0.84766,-0.91016 1.4727,-0.91016 0.62109,0 1.1914,0.35156 1.4688,0.91016 l 27.207,54.41 c 0.32031,0.64453 0.28516,1.4102 -0.09375,2.0273 -0.37891,0.61328 -1.0508,0.98828 -1.7695,0.98828 z"
     id="path2"
     style="fill:#165016" />
</svg>
