<?xml version="1.0" encoding="UTF-8" standalone="no"?>
<svg
   width="500"
   zoomAndPan="magnify"
   viewBox="0 0 375.00009 225.00005"
   height="300"
   preserveAspectRatio="xMidYMid"
   version="1.0"
   id="svg121"
   sodipodi:docname="logolight.svg"
   inkscape:version="1.2.2 (b0a8486541, 2022-12-01)"
   xmlns:inkscape="http://www.inkscape.org/namespaces/inkscape"
   xmlns:sodipodi="http://sodipodi.sourceforge.net/DTD/sodipodi-0.dtd"
   xmlns="http://www.w3.org/2000/svg"
   xmlns:svg="http://www.w3.org/2000/svg">
  <sodipodi:namedview
     id="namedview123"
     pagecolor="#ffffff"
     bordercolor="#999999"
     borderopacity="1"
     inkscape:showpageshadow="0"
     inkscape:pageopacity="0"
     inkscape:pagecheckerboard="0"
     inkscape:deskcolor="#d1d1d1"
     showgrid="false"
     inkscape:zoom="0.472"
     inkscape:cx="169.49153"
     inkscape:cy="250"
     inkscape:window-width="1920"
     inkscape:window-height="1007"
     inkscape:window-x="0"
     inkscape:window-y="0"
     inkscape:window-maximized="1"
     inkscape:current-layer="svg121" />
  <defs
     id="defs7">
    <g
       id="g2" />
    <clipPath
       id="c6f1e99367">
      <path
         d="M 29.820312,103.47266 H 320.07031 v 108.75 H 29.820312 Z m 0,0"
         clip-rule="nonzero"
         id="path4" />
    </clipPath>
  </defs>
  <g
     clip-path="url(#c6f1e99367)"
     id="g11"
     style="fill:#ffffff"
     transform="translate(0.82563583,-67.025685)">
    <path
       fill="#ffffff"
       d="m 265.01953,167.99609 c 18.17578,13.71875 36.46484,27.28516 55.21875,40.21875 -10.91406,-10.57422 -22.11328,-20.82031 -33.37891,-31.01172 -8.36718,-7.54687 -17.02734,-15.23437 -25.51562,-22.66406 -2.11719,-1.83594 -9.24219,-8.08203 -11.28125,-9.84765 -1.20313,0.92968 -4.10938,3.10937 -6.57031,4.96093 -8.37891,-8.05468 -17.26172,-16.42968 -25.62891,-24.30859 -4.26172,-4.02344 -13.64844,-12.71484 -18.04297,-16.80859 -2.65234,-1.06641 -7.0664,-2.74219 -9.72656,-3.81641 l -3.1875,-1.24609 c 0,0 -2.68359,2.1875 -2.68359,2.1875 -4.07422,3.36328 -10.4375,8.44922 -14.4375,11.82031 -8.14063,6.88281 -20.73829,16.5664 -29.19532,23.28125 0,0 -7.98437,6.36719 -11.70703,9.33984 -4.67968,-2.85156 -12.43359,-7.5625 -13.73047,-8.375 l -2.72265,2.14453 c -28.019534,22.1875 -55.824221,44.72657 -82.49219,68.54297 28.390625,-17.83984 55.914062,-37.00781 83.24219,-56.41015 0,0 1.2539,-0.89844 2.48437,-1.78516 1.34766,0.88281 2.97657,1.95312 4.64844,3.05078 -0.74219,0.66797 -1.47656,1.33594 -2.21484,2.00391 -16.70703,15.13281 -37.281254,33.72265 -53.968754,48.9414 0,0 17.1875,-11.75 17.1875,-11.75 14.699219,-10.24218 33.144534,-22.53125 48.140624,-33.20703 0.0117,0.008 0.0312,0.0234 0.0469,0.0312 0.57031,-0.42969 1.15625,-0.86719 1.74218,-1.3125 0.48047,-0.33984 0.95313,-0.67969 1.42188,-1.01953 l -0.0234,-0.0312 c 11.71875,-8.79297 26.375,-19.72266 37.30078,-28.29687 5.84766,-4.75782 12.98047,-10.59766 19.1211,-15.67578 1.54296,0.59375 3.19531,1.23046 4.48437,1.72265 2.69141,2.41406 10.85938,9.73438 10.85938,9.73438 10.16406,9.07031 20.67187,18.35156 31.07031,27.38281 -12.89844,11.48828 -29.94141,26.72265 -42.70313,38.22265 -5.22265,4.73047 -10.45703,9.44532 -15.66406,14.19922 19.32813,-13.19922 41.5625,-28.71093 60.78516,-42.14453 2.49609,-1.78906 6.28515,-4.19922 8.41406,-6.36328 0,0 -0.0117,-0.0117 -0.0273,-0.0312 1.21093,-1.01953 2.53515,-2.13281 3.71875,-3.13281 4.84765,3.71875 10.91796,8.3789 15.01562,11.45312"
       fill-opacity="1"
       fill-rule="nonzero"
       id="path9"
       style="fill:#ffffff" />
  </g>
  <g
     fill="#ffffff"
     fill-opacity="1"
     id="g19"
     style="fill:#ffffff"
     transform="translate(0.82563583,-67.025685)">
    <g
       transform="translate(11.135906,260.97043)"
       id="g17"
       style="fill:#ffffff">
      <g
         id="g15"
         style="fill:#ffffff">
        <path
           d="m 3.703125,-31.21875 h 7.21875 V 0 h -7.21875 z m 0,0"
           id="path13"
           style="fill:#ffffff" />
      </g>
    </g>
  </g>
  <g
     fill="#ffffff"
     fill-opacity="1"
     id="g27"
     style="fill:#ffffff"
     transform="translate(0.82563583,-67.025685)">
    <g
       transform="translate(25.763849,260.97043)"
       id="g25"
       style="fill:#ffffff">
      <g
         id="g23"
         style="fill:#ffffff">
        <path
           d="m 15.078125,-12.265625 -4.1875,4.375 V 0 h -7.1875 v -31.21875 h 7.1875 v 14.578125 L 24.71875,-31.21875 H 32.75 L 19.8125,-17.3125 33.5,0 h -8.421875 z m 0,0"
           id="path21"
           style="fill:#ffffff" />
      </g>
    </g>
  </g>
  <g
     fill="#ffffff"
     fill-opacity="1"
     id="g35"
     style="fill:#ffffff"
     transform="translate(0.82563583,-67.025685)">
    <g
       transform="translate(58.76593,260.97043)"
       id="g33"
       style="fill:#ffffff">
      <g
         id="g31"
         style="fill:#ffffff">
        <path
           d="m 18.828125,0.53125 c -3.242187,0 -6.164063,-0.695312 -8.765625,-2.09375 -2.605469,-1.394531 -4.648438,-3.316406 -6.125,-5.765625 -1.46875,-2.457031 -2.203125,-5.21875 -2.203125,-8.28125 0,-3.0625 0.734375,-5.816406 2.203125,-8.265625 1.476562,-2.457031 3.519531,-4.382812 6.125,-5.78125 2.601562,-1.40625 5.523438,-2.109375 8.765625,-2.109375 3.238281,0 6.148437,0.703125 8.734375,2.109375 2.59375,1.398438 4.628906,3.324219 6.109375,5.78125 1.488281,2.449219 2.234375,5.203125 2.234375,8.265625 0,3.0625 -0.746094,5.824219 -2.234375,8.28125 -1.480469,2.449219 -3.515625,4.371094 -6.109375,5.765625 -2.585938,1.398438 -5.496094,2.09375 -8.734375,2.09375 z m 0,-6.15625 c 1.84375,0 3.503906,-0.421875 4.984375,-1.265625 1.488281,-0.84375 2.65625,-2.023437 3.5,-3.546875 0.851562,-1.519531 1.28125,-3.242188 1.28125,-5.171875 0,-1.9375 -0.429688,-3.660156 -1.28125,-5.171875 -0.84375,-1.519531 -2.011719,-2.703125 -3.5,-3.546875 -1.480469,-0.851563 -3.140625,-1.28125 -4.984375,-1.28125 -1.84375,0 -3.511719,0.429687 -5,1.28125 -1.492187,0.84375 -2.65625,2.027344 -3.5,3.546875 -0.84375,1.511719 -1.265625,3.234375 -1.265625,5.171875 0,1.929687 0.421875,3.652344 1.265625,5.171875 0.84375,1.523438 2.007813,2.703125 3.5,3.546875 1.488281,0.84375 3.15625,1.265625 5,1.265625 z m 0,0"
           id="path29"
           style="fill:#ffffff" />
      </g>
    </g>
  </g>
  <g
     fill="#ffffff"
     fill-opacity="1"
     id="g43"
     style="fill:#ffffff"
     transform="translate(0.82563583,-67.025685)">
    <g
       transform="translate(96.406143,260.97043)"
       id="g41"
       style="fill:#ffffff">
      <g
         id="g39"
         style="fill:#ffffff">
        <path
           d="M 32.34375,-31.21875 V 0 h -5.9375 L 10.84375,-18.953125 V 0 H 3.703125 V -31.21875 H 9.6875 l 15.515625,18.953125 V -31.21875 Z m 0,0"
           id="path37"
           style="fill:#ffffff" />
      </g>
    </g>
  </g>
  <g
     fill="#ffffff"
     fill-opacity="1"
     id="g51"
     style="fill:#ffffff"
     transform="translate(0.82563583,-67.025685)">
    <g
       transform="translate(132.44084,260.97043)"
       id="g49"
       style="fill:#ffffff">
      <g
         id="g47"
         style="fill:#ffffff">
        <path
           d="m 3.703125,-31.21875 h 7.21875 V 0 h -7.21875 z m 0,0"
           id="path45"
           style="fill:#ffffff" />
      </g>
    </g>
  </g>
  <g
     fill="#ffffff"
     fill-opacity="1"
     id="g57">
    <g
       transform="translate(147.08126,260.97043)"
       id="g55">
      <g
         id="g53" />
    </g>
  </g>
  <g
     fill="#ffffff"
     fill-opacity="1"
     id="g63">
    <g
       transform="translate(158.76577,260.97043)"
       id="g61">
      <g
         id="g59" />
    </g>
  </g>
  <g
     fill="#ffffff"
     fill-opacity="1"
     id="g71"
     style="fill:#ffffff"
     transform="translate(0.82563583,-67.025685)">
    <g
       transform="translate(170.46347,260.97043)"
       id="g69"
       style="fill:#ffffff">
      <g
         id="g67"
         style="fill:#ffffff">
        <path
           d="m 18.640625,0.265625 c -3.09375,0 -5.882813,-0.679687 -8.359375,-2.046875 -2.480469,-1.375 -4.429688,-3.269531 -5.84375,-5.6875 -1.417969,-2.425781 -2.125,-5.140625 -2.125,-8.140625 0,-3.007813 0.707031,-5.722656 2.125,-8.140625 1.414062,-2.425781 3.367188,-4.320312 5.859375,-5.6875 2.5,-1.375 5.296875,-2.0625 8.390625,-2.0625 2.320312,0 4.460938,0.390625 6.421875,1.171875 1.96875,0.773437 3.632813,1.902344 5,3.390625 l -2.09375,2.09375 c -2.4375,-2.46875 -5.515625,-3.703125 -9.234375,-3.703125 -2.46875,0 -4.714844,0.570313 -6.734375,1.703125 -2.023437,1.125 -3.605469,2.671875 -4.75,4.640625 -1.148437,1.960937 -1.71875,4.15625 -1.71875,6.59375 0,2.4375 0.570313,4.640625 1.71875,6.609375 1.144531,1.960938 2.726563,3.507812 4.75,4.640625 2.019531,1.125 4.265625,1.6875 6.734375,1.6875 3.75,0 6.828125,-1.25 9.234375,-3.75 l 2.09375,2.09375 c -1.367187,1.492187 -3.039063,2.632813 -5.015625,3.421875 -1.980469,0.78125 -4.132812,1.171875 -6.453125,1.171875 z m 0,0"
           id="path65"
           style="fill:#ffffff" />
      </g>
    </g>
  </g>
  <g
     fill="#ffffff"
     fill-opacity="1"
     id="g79"
     style="fill:#ffffff"
     transform="translate(0.82563583,-67.025685)">
    <g
       transform="translate(202.529,260.97043)"
       id="g77"
       style="fill:#ffffff">
      <g
         id="g75"
         style="fill:#ffffff">
        <path
           d="M 24.671875,-8.34375 H 7.265625 L 3.53125,0 H 0.09375 L 14.359375,-31.21875 H 17.625 L 31.890625,0 h -3.46875 z m -1.203125,-2.671875 -7.5,-16.78125 -7.5,16.78125 z m 0,0"
           id="path73"
           style="fill:#ffffff" />
      </g>
    </g>
  </g>
  <g
     fill="#ffffff"
     fill-opacity="1"
     id="g87"
     style="fill:#ffffff"
     transform="translate(0.82563583,-67.025685)">
    <g
       transform="translate(234.50533,260.97043)"
       id="g85"
       style="fill:#ffffff">
      <g
         id="g83"
         style="fill:#ffffff">
        <path
           d="m 16.765625,-31.21875 c 3.988281,0 7.113281,0.953125 9.375,2.859375 2.257813,1.898437 3.390625,4.511719 3.390625,7.84375 0,3.324219 -1.132812,5.933594 -3.390625,7.828125 -2.261719,1.886719 -5.386719,2.828125 -9.375,2.828125 h -8.375 V 0 h -3.3125 v -31.21875 z m -0.07813,18.453125 c 3.09375,0 5.457031,-0.671875 7.09375,-2.015625 1.632812,-1.351562 2.453125,-3.265625 2.453125,-5.734375 0,-2.53125 -0.820313,-4.472656 -2.453125,-5.828125 -1.636719,-1.351562 -4,-2.03125 -7.09375,-2.03125 h -8.29687 v 15.609375 z m 0,0"
           id="path81"
           style="fill:#ffffff" />
      </g>
    </g>
  </g>
  <g
     fill="#ffffff"
     fill-opacity="1"
     id="g95"
     style="fill:#ffffff"
     transform="translate(0.82563583,-67.025685)">
    <g
       transform="translate(266.52627,260.97043)"
       id="g93"
       style="fill:#ffffff">
      <g
         id="g91"
         style="fill:#ffffff">
        <path
           d="m 5.078125,-31.21875 h 3.3125 V 0 h -3.3125 z m 0,0"
           id="path89"
           style="fill:#ffffff" />
      </g>
    </g>
  </g>
  <g
     fill="#ffffff"
     fill-opacity="1"
     id="g103"
     style="fill:#ffffff"
     transform="translate(0.82563583,-67.025685)">
    <g
       transform="translate(279.99469,260.97043)"
       id="g101"
       style="fill:#ffffff">
      <g
         id="g99"
         style="fill:#ffffff">
        <path
           d="M 11.15625,-28.375 H 0.171875 v -2.84375 h 25.25 V -28.375 H 14.453125 V 0 H 11.15625 Z m 0,0"
           id="path97"
           style="fill:#ffffff" />
      </g>
    </g>
  </g>
  <g
     fill="#ffffff"
     fill-opacity="1"
     id="g111"
     style="fill:#ffffff"
     transform="translate(0.82563583,-67.025685)">
    <g
       transform="translate(305.5936,260.97043)"
       id="g109"
       style="fill:#ffffff">
      <g
         id="g107"
         style="fill:#ffffff">
        <path
           d="M 24.671875,-8.34375 H 7.265625 L 3.53125,0 H 0.09375 L 14.359375,-31.21875 H 17.625 L 31.890625,0 h -3.46875 z m -1.203125,-2.671875 -7.5,-16.78125 -7.5,16.78125 z m 0,0"
           id="path105"
           style="fill:#ffffff" />
      </g>
    </g>
  </g>
  <g
     fill="#ffffff"
     fill-opacity="1"
     id="g119"
     style="fill:#ffffff"
     transform="translate(0.82563583,-67.025685)">
    <g
       transform="translate(337.56993,260.97043)"
       id="g117"
       style="fill:#ffffff">
      <g
         id="g115"
         style="fill:#ffffff">
        <path
           d="m 5.078125,-31.21875 h 3.3125 V -2.859375 H 25.875 V 0 H 5.078125 Z m 0,0"
           id="path113"
           style="fill:#ffffff" />
      </g>
    </g>
  </g>
</svg>
